<?xml version="1.0" encoding="UTF-8" standalone="no"?>
<!-- Uploaded to: SVG Repo, www.svgrepo.com, Generator: SVG Repo Mixer Tools -->

<svg
   fill="#000000"
   version="1.1"
   id="Capa_1"
   width="32"
   height="32"
   viewBox="0 0 20.6902 20.69016"
   xml:space="preserve"
   sodipodi:docname="favicon.svg"
   inkscape:version="1.4.2 (ebf0e940, 2025-05-08)"
   xmlns:inkscape="http://www.inkscape.org/namespaces/inkscape"
   xmlns:sodipodi="http://sodipodi.sourceforge.net/DTD/sodipodi-0.dtd"
   xmlns="http://www.w3.org/2000/svg"
   xmlns:svg="http://www.w3.org/2000/svg"><defs
   id="defs2" /><sodipodi:namedview
   id="namedview2"
   pagecolor="#ffffff"
   bordercolor="#000000"
   borderopacity="0.25"
   inkscape:showpageshadow="2"
   inkscape:pageopacity="0.0"
   inkscape:pagecheckerboard="0"
   inkscape:deskcolor="#d1d1d1"
   inkscape:zoom="8.32"
   inkscape:cx="20.012019"
   inkscape:cy="19.831731"
   inkscape:window-width="1472"
   inkscape:window-height="919"
   inkscape:window-x="0"
   inkscape:window-y="37"
   inkscape:window-maximized="0"
   inkscape:current-layer="g2" />
<g
   id="g2">
	<g
   id="g1"
   style="fill:#ffffff"
   inkscape:export-filename="/Users/naighes/git/scoutforall/web/public/g1.png"
   inkscape:export-xdpi="61.439999"
   inkscape:export-ydpi="61.439999"
   transform="scale(0.04)">
		<path
   d="m 258.618,517.254 c 142.615,0 258.637,-116.021 258.637,-258.627 C 517.255,116.022 401.233,0 258.618,0 116.012,0 0,116.022 0,258.627 0,401.233 116.012,517.254 258.618,517.254 Z M 34.789,311.049 c 4.504,3.252 9.409,6.102 14.257,8.883 l 1.492,0.861 c 38.403,21.945 87.334,33.545 141.516,33.545 17.327,0 35.133,-1.186 52.871,-3.51 14.219,-1.863 29.06,-4.895 45.383,-9.303 1.54,-0.412 3.213,-0.805 4.954,-1.205 4.8,-1.119 10.231,-2.391 13.76,-4.543 0.22,-0.037 0.153,-0.535 -0.545,-2.018 -2.142,-4.15 -4.466,-8.301 -6.799,-12.469 l -0.976,-1.73 c -8.539,-15.186 -17.93,-29.07 -27.884,-41.264 l -2.143,-2.695 c -3.634,-4.668 -7.401,-9.477 -11.896,-11.926 -1.778,-0.975 -6.598,0.182 -10.471,1.291 -1.865,0.545 -3.644,1.033 -5.154,1.311 -5.833,1.061 -11.657,2.256 -17.48,3.461 -10.366,2.143 -21.104,4.352 -31.881,5.729 -13.148,1.654 -24.9,2.984 -36.978,2.467 -23.868,-0.984 -48.95,-7.42 -78.938,-20.263 -13.072,-5.728 -25.713,-13.75 -38.651,-24.528 -0.823,-0.688 -1.96,-1.922 -3.232,-3.337 -1.081,-1.205 -3.299,-3.644 -4.838,-4.801 3.088,-21.037 9.075,-41.138 17.48,-59.928 -1.597,6.56 -3.098,13.168 -4.332,19.823 -0.354,1.827 -0.851,3.844 -1.387,5.958 -1.396,5.728 -3.146,12.852 -2.056,17.375 2.075,8.721 10.92,14.927 18.714,20.397 0.899,0.593 1.568,1.109 2.295,1.683 1.004,0.775 3.347,2.563 4.37,2.802 1.062,-1.071 2.248,-7.545 2.64,-9.687 0.229,-1.262 0.439,-2.353 0.641,-3.118 3.739,-14.994 9.715,-31.308 17.748,-48.453 1.817,-3.834 3.566,-7.669 5.335,-11.513 7.411,-16.094 15.08,-32.742 24.844,-48.205 13.196,-21.085 29.988,-41.386 54.42,-65.828 0.363,-0.373 0.765,-0.698 1.138,-1.062 12.049,-4.848 24.576,-8.73 37.523,-11.494 -2.696,2.295 -5.364,4.638 -8.003,6.981 -2.238,1.989 -4.447,3.958 -6.627,5.833 -40.105,34.301 -71.107,78.259 -94.765,134.391 -5.938,14.057 -12.67,29.988 -16.457,46.245 -0.354,1.501 -0.966,3.251 -1.625,5.087 -0.976,2.735 -2.324,6.493 -2.008,8.358 0.201,1.062 3.337,2.744 9.305,4.934 1.338,0.488 2.553,0.937 3.461,1.358 11.523,5.164 24.576,9.008 38.814,11.447 1.291,0.2 2.726,0.525 4.198,0.832 3.175,0.707 6.436,1.453 9.008,1.109 0.612,-0.364 1.195,-2.411 1.473,-3.396 l 0.488,-1.606 c 2.629,-7.774 5.192,-15.644 7.679,-23.466 2.199,-6.866 4.934,-13.56 7.544,-20.024 1.31,-3.232 2.611,-6.445 3.863,-9.687 9.247,-24.241 17.624,-44.532 28.391,-64.748 21.277,-39.531 49.926,-72.685 82.888,-95.883 5.422,-3.825 10.604,-7.181 15.635,-10.165 8.721,1.348 17.26,3.232 25.637,5.537 -13.665,5.288 -25.78,13.33 -35.716,20.636 -48.023,35.142 -75.783,85.546 -90.605,121.635 -8.367,20.292 -17.834,43.28 -24.767,65.981 -0.593,2.018 -1.454,4.217 -2.343,6.464 -1.435,3.624 -2.926,7.372 -3.089,10.499 1.023,-0.363 1.779,-0.363 2.591,-0.354 5.346,0 10.997,-0.879 16.476,-1.74 2.228,-0.354 4.447,-0.697 6.608,-0.975 l 3.079,-0.422 c 13.722,-1.854 26.679,-3.604 39.914,-6.626 1.912,-0.42 4.217,-0.708 6.684,-1.014 5.25,-0.641 11.771,-1.444 14.401,-3.882 1.473,-1.386 2.467,-5.068 3.261,-8.032 0.498,-1.846 0.985,-3.634 1.559,-5.125 l 1.999,-5.125 c 3.844,-9.936 7.841,-20.225 12.412,-30.131 13.32,-29.032 31.91,-55.893 55.214,-79.818 15.004,-15.415 33.938,-28.649 51.943,-36.318 6.196,-2.61 12.001,-4.571 17.758,-5.986 l 1.253,-0.287 c 0.086,-0.019 0.2,-0.048 0.296,-0.067 11.007,8.453 21.267,17.853 30.581,28.123 -4.322,-3.031 -8.559,-5.823 -12.613,-8.252 l -1.271,-0.774 c -3.013,-1.846 -6.13,-3.758 -8.979,-3.758 -8.147,1.119 -16.094,4.409 -21.43,6.79 l -1.214,0.536 c -0.804,0.334 -2.305,0.975 -2.649,1.406 0.459,0.602 3.997,3.739 5.499,5.078 1.157,1.023 2.189,1.951 2.859,2.687 9.619,10.519 18.054,20.655 25.79,30.982 l 0.697,0.937 c 12.958,17.184 26.374,34.951 37.409,53.99 10.308,17.662 19.688,38.91 27.874,63.15 2.793,8.243 4.772,16.858 6.35,25.684 -1.74,16.562 -5.278,32.58 -10.356,47.908 -0.41,-6.473 -1.052,-13.271 -1.998,-20.816 -1.826,-14.803 -4.169,-30.533 -8.74,-45.289 -12.106,-39.483 -34.023,-73.86 -51.752,-99.401 -12.537,-18.006 -24.547,-32.981 -36.701,-45.766 -0.641,-0.679 -1.453,-1.616 -2.353,-2.668 -2.075,-2.41 -6.913,-8.062 -9.266,-8.062 -2.63,0.708 -5.824,3.376 -8.645,5.728 -1.042,0.861 -2.037,1.693 -2.983,2.4 -9.869,7.592 -18.81,16.438 -29.845,29.567 -0.717,0.823 -1.674,1.789 -2.754,2.878 -1.778,1.769 -7.162,7.172 -6.99,9.084 0.392,1.951 5.001,5.843 7.468,7.937 1.435,1.205 2.735,2.314 3.682,3.261 10.797,10.777 20.837,21.764 29.845,32.666 26.564,32.493 55.539,71.776 69.032,116.883 8.73,29.184 13.616,54.744 14.917,78.154 l 0.115,2.477 c -4.542,5.822 -9.353,11.416 -14.43,16.771 0.086,-7 -0.852,-14.43 -1.75,-21.361 -0.297,-2.297 -0.584,-4.523 -0.822,-6.637 -4.877,-43.807 -17.041,-82.449 -36.156,-114.846 -7.765,-13.234 -16.849,-25.905 -24.748,-36.74 -13.722,-18.829 -28.897,-36.05 -43.261,-51.838 -4.063,-4.513 -7.727,-8.224 -11.217,-11.37 -1.062,-0.937 -1.979,-1.75 -2.361,-1.874 0.182,0.076 -0.708,1.53 -1.091,2.151 l -7.821,13.062 c -7.096,11.857 -12.23,25.063 -17.203,37.839 l -3.194,8.166 c -0.555,1.435 -1.348,3.127 -2.209,4.925 -1.922,4.055 -4.312,9.113 -3.844,12.145 0.306,1.884 3.155,4.398 5.45,6.436 1.406,1.243 2.745,2.448 3.759,3.586 7.879,8.701 15.185,18.254 21.065,27.568 19.536,31.098 40.88,68.41 51.083,109.395 4.274,17.031 5.853,34.885 4.456,50.252 -0.478,5.68 -1.501,11.158 -3.107,16.705 -0.134,0.479 -0.335,1.1 -0.555,1.73 -0.268,0.793 -0.774,2.258 -0.67,2.734 0.067,0.029 0.373,0.086 0.632,0.145 -23.964,10.691 -50.051,17.385 -77.476,19.268 11.398,-3.213 22.166,-7.182 31.537,-10.939 3.165,-1.242 6.455,-2.342 9.764,-3.441 6.225,-2.076 12.689,-4.227 17.978,-7.508 1.567,-0.965 2.151,-2.639 3.04,-5.518 2.047,-6.875 3.003,-13.254 3.003,-19.449 l 0.01,-1.244 c 0.028,-1.1 0.105,-4.025 -0.449,-4.686 -0.431,0.096 -1.406,0.373 -2.19,0.594 l -1.233,0.334 c -2.343,0.594 -4.724,1.158 -7.104,1.713 l -5.26,1.252 c -15.108,3.787 -29.959,6.656 -44.111,8.51 -40.698,5.346 -85.384,4.17 -128.176,-3.336 -15.147,-2.648 -28.429,-5.824 -40.411,-9.592 -9.562,-8.043 -18.446,-16.859 -26.593,-26.326 40.315,17.357 87.956,26.508 139.029,26.508 16.553,0 33.44,-0.965 50.193,-2.859 15.367,-1.787 30.236,-5.02 46.713,-8.76 1.53,-0.344 3.366,-0.65 5.308,-0.965 4.522,-0.736 10.126,-1.645 12.622,-3.48 0.631,-0.594 0.966,-3.031 -1.023,-11.256 -0.229,-0.918 -0.411,-1.73 -0.563,-2.41 -3.424,-15.107 -9.343,-29.92 -14.603,-42.619 -0.392,-0.908 -0.765,-2.027 -1.176,-3.242 -0.86,-2.553 -2.668,-7.859 -4.428,-8.443 -0.65,0 -1.75,0.383 -2.61,0.697 -0.612,0.221 -1.215,0.441 -1.778,0.604 l -1.033,0.324 c -4.666,1.473 -9.353,2.945 -14.066,4.295 -15.242,4.445 -32.178,7.879 -51.752,10.508 -17.127,2.295 -34.511,3.453 -51.676,3.453 -35.726,0 -69.405,-4.896 -100.072,-14.535 C 74.861,350.307 57.477,342.973 41.564,334.385 38.91,326.79 36.653,318.997 34.789,311.049 Z"
   id="path1"
   style="fill:#ffffff" />
	</g>
</g>
</svg>
